<svg width="98" height="23" viewBox="0 0 98 23" fill="none" xmlns="http://www.w3.org/2000/svg">
<g clip-path="url(#clip0_26_81)">
<path fill-rule="evenodd" clip-rule="evenodd" d="M4.6087 9.3088C5.57343 9.53913 6.74147 9.6739 8 9.6739C9.25853 9.6739 10.4266 9.53913 11.3913 9.3088C12.3048 9.09073 13.3322 8.5777 13.7854 8.2216L8.28287 17.0464C8.15237 17.2557 7.84763 17.2557 7.71713 17.0464L2.21458 8.2216C2.66777 8.5777 3.6952 9.09073 4.6087 9.3088Z" fill="#1C0D12"/>
<path fill-rule="evenodd" clip-rule="evenodd" d="M13.3327 7.57867C13.3315 7.58457 13.3292 7.59483 13.3249 7.6098C13.3145 7.64663 13.2983 7.69137 13.2782 7.73917C13.2723 7.75323 13.2663 7.7669 13.2604 7.77993C12.8368 8.07043 11.9929 8.47977 11.2365 8.66037C10.3292 8.877 9.21377 9.00723 8 9.00723C6.78623 9.00723 5.67083 8.877 4.7635 8.66037C4.0004 8.4782 3.14835 8.06323 2.72846 7.77227C2.72461 7.76417 2.72072 7.75567 2.71684 7.74693C2.69973 7.7083 2.68574 7.67047 2.67659 7.637C2.66785 7.60507 2.6668 7.5889 2.66668 7.58707C2.66667 7.5869 2.66668 7.587 2.66668 7.58707C2.66668 7.57863 2.67013 7.47443 2.89495 7.28953C3.11515 7.10847 3.47407 6.91563 3.97637 6.74092C4.97473 6.39366 6.3973 6.16667 8 6.16667C9.6027 6.16667 11.0253 6.39366 12.0236 6.74092C12.5259 6.91563 12.8848 7.10847 13.105 7.28953C13.3002 7.45003 13.3286 7.54963 13.3327 7.57867ZM1.65059 8.57707L7.15143 17.3991C7.54293 18.027 8.45707 18.027 8.84857 17.3991L14.3511 8.57433C14.357 8.56493 14.3626 8.5554 14.368 8.5457L13.7854 8.2216C14.368 8.5457 14.3679 8.5458 14.368 8.5457L14.3684 8.545L14.3688 8.54417L14.37 8.54203L14.3733 8.53607C14.3759 8.53133 14.3792 8.52513 14.3832 8.51757C14.3913 8.5025 14.4021 8.48183 14.4147 8.4567C14.4397 8.40693 14.4732 8.337 14.5072 8.2561C14.5634 8.12263 14.6667 7.8563 14.6667 7.58697C14.6667 7.0191 14.3343 6.57418 13.9519 6.2597C13.5649 5.94142 13.0451 5.68454 12.4617 5.48159C11.2885 5.07352 9.711 4.83333 8 4.83333C6.289 4.83333 4.71153 5.07352 3.53833 5.48159C2.95488 5.68454 2.4351 5.94143 2.04806 6.2597C1.66565 6.57418 1.33333 7.0191 1.33333 7.58697C1.33333 7.87583 1.43088 8.13593 1.49774 8.2869C1.53458 8.37007 1.57116 8.43987 1.59896 8.48963C1.61299 8.5148 1.62516 8.5355 1.6345 8.55097C1.63918 8.55873 1.64318 8.56523 1.64639 8.57037L1.64887 8.57433L1.65059 8.57707ZM11.9956 9.832L8 16.24L4.00437 9.832C4.15537 9.8797 4.30597 9.92193 4.4539 9.95727C5.47603 10.2013 6.6967 10.3406 8 10.3406C9.3033 10.3406 10.524 10.2013 11.5461 9.95727C11.694 9.92193 11.8446 9.8797 11.9956 9.832Z" fill="#1C0D12"/>
</g>
<path d="M33.296 19V5.59H35.636L40.658 12.412H39.542L44.456 5.59H46.796V19H44.33V8.38L45.284 8.614L40.19 15.4H39.902L34.934 8.614L35.744 8.38V19H33.296ZM52.1344 19.216C51.4504 19.216 50.8564 19.102 50.3524 18.874C49.8484 18.646 49.4584 18.322 49.1824 17.902C48.9064 17.47 48.7684 16.972 48.7684 16.408C48.7684 15.868 48.8884 15.388 49.1284 14.968C49.3684 14.536 49.7404 14.176 50.2444 13.888C50.7484 13.6 51.3844 13.396 52.1524 13.276L55.3564 12.754V14.554L52.6024 15.022C52.1344 15.106 51.7864 15.256 51.5584 15.472C51.3304 15.688 51.2164 15.97 51.2164 16.318C51.2164 16.654 51.3424 16.924 51.5944 17.128C51.8584 17.32 52.1824 17.416 52.5664 17.416C53.0584 17.416 53.4904 17.314 53.8624 17.11C54.2464 16.894 54.5404 16.6 54.7444 16.228C54.9604 15.856 55.0684 15.448 55.0684 15.004V12.484C55.0684 12.064 54.9004 11.716 54.5644 11.44C54.2404 11.152 53.8084 11.008 53.2684 11.008C52.7644 11.008 52.3144 11.146 51.9184 11.422C51.5344 11.686 51.2524 12.04 51.0724 12.484L49.1464 11.548C49.3384 11.032 49.6384 10.588 50.0464 10.216C50.4664 9.832 50.9584 9.532 51.5224 9.316C52.0864 9.1 52.6984 8.992 53.3584 8.992C54.1624 8.992 54.8704 9.142 55.4824 9.442C56.0944 9.73 56.5684 10.138 56.9044 10.666C57.2524 11.182 57.4264 11.788 57.4264 12.484V19H55.1944V17.326L55.6984 17.29C55.4464 17.71 55.1464 18.064 54.7984 18.352C54.4504 18.628 54.0544 18.844 53.6104 19C53.1664 19.144 52.6744 19.216 52.1344 19.216ZM63.894 19.108C62.79 19.108 61.932 18.808 61.32 18.208C60.72 17.596 60.42 16.738 60.42 15.634V11.314H58.728V9.208H58.908C59.388 9.208 59.76 9.082 60.024 8.83C60.288 8.578 60.42 8.212 60.42 7.732V6.976H62.778V9.208H65.028V11.314H62.778V15.508C62.778 15.832 62.832 16.108 62.94 16.336C63.06 16.564 63.24 16.738 63.48 16.858C63.732 16.978 64.05 17.038 64.434 17.038C64.518 17.038 64.614 17.032 64.722 17.02C64.842 17.008 64.956 16.996 65.064 16.984V19C64.896 19.024 64.704 19.048 64.488 19.072C64.272 19.096 64.074 19.108 63.894 19.108ZM71.4937 19.216C70.5217 19.216 69.6457 18.994 68.8657 18.55C68.0977 18.094 67.4917 17.482 67.0477 16.714C66.6037 15.934 66.3817 15.058 66.3817 14.086C66.3817 13.114 66.6037 12.244 67.0477 11.476C67.4917 10.708 68.0977 10.102 68.8657 9.658C69.6457 9.214 70.5217 8.992 71.4937 8.992C72.1897 8.992 72.8377 9.118 73.4377 9.37C74.0377 9.61 74.5537 9.946 74.9857 10.378C75.4297 10.798 75.7477 11.302 75.9397 11.89L73.8697 12.79C73.6897 12.298 73.3837 11.902 72.9517 11.602C72.5317 11.302 72.0457 11.152 71.4937 11.152C70.9777 11.152 70.5157 11.278 70.1077 11.53C69.7117 11.782 69.3997 12.13 69.1717 12.574C68.9437 13.018 68.8297 13.528 68.8297 14.104C68.8297 14.68 68.9437 15.19 69.1717 15.634C69.3997 16.078 69.7117 16.426 70.1077 16.678C70.5157 16.93 70.9777 17.056 71.4937 17.056C72.0577 17.056 72.5497 16.906 72.9697 16.606C73.3897 16.306 73.6897 15.904 73.8697 15.4L75.9397 16.336C75.7477 16.888 75.4357 17.386 75.0037 17.83C74.5717 18.262 74.0557 18.604 73.4557 18.856C72.8557 19.096 72.2017 19.216 71.4937 19.216ZM77.7289 19V5.374H80.0869V11.134L79.7629 10.792C79.9909 10.204 80.3629 9.76 80.8789 9.46C81.4069 9.148 82.0189 8.992 82.7149 8.992C83.4349 8.992 84.0709 9.148 84.6229 9.46C85.1869 9.772 85.6249 10.21 85.9369 10.774C86.2489 11.326 86.4049 11.968 86.4049 12.7V19H84.0469V13.258C84.0469 12.826 83.9629 12.454 83.7949 12.142C83.6269 11.83 83.3929 11.59 83.0929 11.422C82.8049 11.242 82.4629 11.152 82.0669 11.152C81.6829 11.152 81.3409 11.242 81.0409 11.422C80.7409 11.59 80.5069 11.83 80.3389 12.142C80.1709 12.454 80.0869 12.826 80.0869 13.258V19H77.7289ZM91.3688 19.216C90.6848 19.216 90.0908 19.102 89.5868 18.874C89.0828 18.646 88.6928 18.322 88.4168 17.902C88.1408 17.47 88.0028 16.972 88.0028 16.408C88.0028 15.868 88.1228 15.388 88.3628 14.968C88.6028 14.536 88.9748 14.176 89.4788 13.888C89.9828 13.6 90.6188 13.396 91.3868 13.276L94.5908 12.754V14.554L91.8368 15.022C91.3688 15.106 91.0208 15.256 90.7928 15.472C90.5648 15.688 90.4508 15.97 90.4508 16.318C90.4508 16.654 90.5768 16.924 90.8288 17.128C91.0928 17.32 91.4168 17.416 91.8008 17.416C92.2928 17.416 92.7248 17.314 93.0968 17.11C93.4808 16.894 93.7748 16.6 93.9788 16.228C94.1948 15.856 94.3028 15.448 94.3028 15.004V12.484C94.3028 12.064 94.1348 11.716 93.7988 11.44C93.4748 11.152 93.0428 11.008 92.5028 11.008C91.9988 11.008 91.5488 11.146 91.1528 11.422C90.7688 11.686 90.4868 12.04 90.3068 12.484L88.3808 11.548C88.5728 11.032 88.8728 10.588 89.2808 10.216C89.7008 9.832 90.1928 9.532 90.7568 9.316C91.3208 9.1 91.9328 8.992 92.5928 8.992C93.3968 8.992 94.1048 9.142 94.7168 9.442C95.3288 9.73 95.8028 10.138 96.1388 10.666C96.4868 11.182 96.6608 11.788 96.6608 12.484V19H94.4288V17.326L94.9328 17.29C94.6808 17.71 94.3808 18.064 94.0328 18.352C93.6848 18.628 93.2888 18.844 92.8448 19C92.4008 19.144 91.9088 19.216 91.3688 19.216Z" fill="#1C0D12"/>
<defs>
<clipPath id="clip0_26_81">
<rect width="16" height="16" fill="white" transform="translate(0 3.5)"/>
</clipPath>
</defs>
</svg>
